<svg viewBox="0 0 354 360" version="1.1" xmlns="http://www.w3.org/2000/svg" title="logo" desc="logo" class="animate-svg"><defs><style>.animate-svg path{-webkit-animation:draw ease-in-out forwards;animation:draw ease-in-out forwards;stroke:#000}.animate-svg{-webkit-animation:fillopacity 3 ease-in-out forwards;animation:fillopacity 3s ease-in-out forwards}@-webkit-keyframes draw{100%{stroke-dashoffset:0}}@keyframes draw{100%{stroke-dashoffset:0}}@-webkit-keyframes fillopacity{0%,70%{fill-opacity:0;stroke-width:0.5%}100%{fill-opacity:1;stroke-width:0}}@keyframes fillopacity{0%,70%{fill-opacity:0;stroke-width:0.5%}100%{fill-opacity:1;stroke-width:0}}</style></defs><path fill="rgb(152,7,36)" stroke="rgb(152,7,36)" stroke-width="null" opacity="0.9725490196078431" d="M 212.5 0 L 301 74.5 L 275.5 96 L 212.5 43 L 147 98.5 L 248 265.5 L 139.5 357 L 52 283.5 L 77.5 262 L 141.5 314 L 206 259.5 L 105 92.5 L 212.5 0 Z " style="stroke-dasharray: 1305.83; stroke-dashoffset: 1305.83; animation-delay: 0s; animation-duration: 1.21209s;"></path><path fill="rgb(152,7,36)" stroke="rgb(152,7,36)" stroke-width="null" opacity="0.9725490196078431" d="M 210.5 80 L 289.5 147 L 314.5 118 L 316 120.5 L 351 228 L 236 212 L 260 181.5 L 181 114.5 L 210.5 80 Z " style="stroke-dasharray: 561.74; stroke-dashoffset: 561.74; animation-delay: 0.25s; animation-duration: 1.46998s;"></path><path fill="rgb(152,7,36)" stroke="rgb(152,7,36)" stroke-width="null" opacity="0.9725490196078431" d="M 1 131 L 116 147.5 L 92 177.5 L 171 243.5 L 141.5 279 L 61 212 L 37.5 241 L 36 238.5 L 1 131 Z " style="stroke-dasharray: 561.726; stroke-dashoffset: 561.726; animation-delay: 0.5s; animation-duration: 1.47s;"></path><path fill="rgb(0,0,0)" stroke="rgb(0,0,0)" stroke-width="null" opacity="0" d="M 0 0 L 212 0.5 L 105 92.5 L 206 259.5 L 139.5 314 L 77.5 262 L 52 283.5 L 141.5 357 L 248 265.5 L 147 98.5 L 212.5 43 L 275.5 96 L 301 74.5 L 213 0.5 L 354 0 L 354 360 L 0 360 L 0 0 Z M 211 80 L 181 115 L 260 182 L 236 212 L 351 228 L 316 121 L 315 118 L 290 147 L 211 80 Z M 1 131 L 36 239 L 38 241 L 61 212 L 142 279 L 171 244 L 92 178 L 116 148 L 1 131 Z " style="stroke-dasharray: 3854.81; stroke-dashoffset: 3854.81; animation-delay: 0.75s; animation-duration: 2.26962s;"></path></svg>